#!OML:ASF F:\VICON\USERDATA\INSTALL\rory3\rory3.ASF
:FULLY-SPECIFIED
:DEGREES
2199
root -3.00427 17.5434 -5.99514 3.59682 36.2458 -1.01229
lowerback 5.48481 -6.60362 -7.8735
upperback 2.19754 -9.16331 2.14762
thorax 0.830162 -4.70537 6.90894
lowerneck -22.1638 -4.60252 -12.8457
upperneck 27.4624 -3.04337 4.08773
head 13.2495 -2.12142 3.2202
rclavicle 5.66536e-014 1.03368e-014
rhumerus 33.5527 2.92332 -52.5236
rradius 56.1375
rwrist 48.5359
rhand -59.0188 -19.1243
rfingers 7.12502
rthumb -31.2173 -46.4841
lclavicle 5.66536e-014 1.03368e-014
lhumerus 52.7519 -20.3511 68.6546
lradius 34.6875
lwrist -38.0782
lhand -52.0141 63.124
lfingers 7.12502
lthumb -24.521 628.426
rfemur -30.7003 4.15216 15.9569
rtibia 33.1843
rfoot -3.78448 -2.77472
rtoes 12.0471
lfemur -0.439198 8.122 -22.065
ltibia 23.9159
lfoot -22.2727 18.3998
ltoes -12.1413
2200
root -3.00161 17.5471 -5.96115 3.68936 36.2227 -1.00311
lowerback 5.46365 -6.61812 -7.85209
upperback 2.22582 -9.17911 2.23787
thorax 0.886416 -4.71815 6.98554
lowerneck -22.3477 -4.58238 -12.826
upperneck 27.4914 -2.94108 3.92649
head 13.287 -2.09643 3.17046
rclavicle 2.31584e-014 -1.19271e-015
rhumerus 33.6705 2.88628 -52.4728
rradius 56.0764
rwrist 48.5425
rhand -59.2262 -19.1641
rfingers 7.12502
rthumb -31.4149 -46.4856
lclavicle 2.31584e-014 -1.19271e-015
lhumerus 52.7757 -20.2579 68.4844
lradius 34.697
lwrist -37.98
lhand -51.9814 62.6884
lfingers 7.12502
lthumb -24.4897 628.857
rfemur -30.7364 4.17834 16.0151
rtibia 33.2726
rfoot -3.88883 -2.75277
rtoes 12.2122
lfemur -0.348615 8.07982 -22.0204
ltibia 23.7392
lfoot -22.1694 18.4786
ltoes -12.2397
2201
root -2.99754 17.5494 -5.92936 3.86749 36.2263 -0.974319
lowerback 5.42649 -6.61817 -7.77124
upperback 2.15923 -9.17464 2.29851
thorax 0.833591 -4.71142 7.0053
lowerneck -22.2904 -4.54493 -12.8592
upperneck 27.4522 -2.87004 3.8869
head 13.2524 -2.07334 3.17257
rclavicle 8.83598e-014 -1.19271e-014
rhumerus 33.5501 2.86871 -52.4393
rradius 56.2152
rwrist 48.6403
rhand -59.2777 -18.9793
rfingers 7.12502
rthumb -31.4639 -46.2914
lclavicle 8.83598e-014 -1.19271e-014
lhumerus 52.6578 -20.2738 68.5094
lradius 34.7532
lwrist -37.9533
lhand -51.6744 63.3847
lfingers 7.12502
lthumb -24.1954 628.122
rfemur -30.8705 4.04665 16.0773
rtibia 33.3764
rfoot -3.94055 -2.5497
rtoes 11.7034
lfemur -0.338211 8.02641 -22.0196
ltibia 23.5441
lfoot -22.1147 18.5182
ltoes -12.191
2202
root -2.99476 17.5519 -5.89752 4.0203 36.2773 -0.891407
lowerback 5.48387 -6.62042 -7.7036
upperback 2.0549 -9.18149 2.31389
thorax 0.68526 -4.70423 7.00136
lowerneck -22.1075 -4.5056 -12.895
upperneck 27.4342 -2.8202 3.86459
head 13.2034 -2.05878 3.1793
rclavicle 1.87504e-013 -1.03368e-014
rhumerus 33.3638 2.86814 -52.5417
rradius 56.333
rwrist 48.777
rhand -59.2972 -18.9616
rfingers 7.12502
rthumb -31.4826 -46.27
lclavicle 1.87504e-013 -1.03368e-014
lhumerus 52.433 -20.3661 68.5813
lradius 34.8512
lwrist -37.9778
lhand -51.3111 64.9802
lfingers 7.12502
lthumb -23.847 626.48
rfemur -30.9417 3.89137 16.0921
rtibia 33.5001
rfoot -4.02875 -2.33502
rtoes 11.5699
lfemur -0.23583 7.85199 -22.0589
ltibia 23.3106
lfoot -22.0719 18.5842
ltoes -12.0389
2203
root -2.99032 17.5558 -5.86637 4.18636 36.3373 -0.833158
lowerback 5.40073 -6.6479 -7.61504
upperback 2.04953 -9.20781 2.35025
thorax 0.722182 -4.71842 6.97984
lowerneck -22.1799 -4.47625 -12.8767
upperneck 27.4417 -2.74184 3.76766
head 13.2123 -2.03557 3.15149
rclavicle -3.61788e-014 -7.95139e-016
rhumerus 33.3443 2.8226 -52.5882
rradius 56.5254
rwrist 48.7854
rhand -59.6368 -19.0425
rfingers 7.12502
rthumb -31.8061 -46.2872
lclavicle -3.61788e-014 -7.95139e-016
lhumerus 52.4006 -20.4103 68.4
lradius 35.0314
lwrist -37.8489
lhand -51.319 65.3983
lfingers 7.12502
lthumb -23.8546 626.063
rfemur -31.0224 3.73693 16.1126
rtibia 33.6053
rfoot -4.11992 -2.18567
rtoes 11.8263
lfemur -0.164239 7.65398 -22.0913
ltibia 23.0865
lfoot -22.0321 18.7054
ltoes -12.1004
2204
root -2.98591 17.5596 -5.83732 4.41444 36.3704 -0.705131
lowerback 5.33263 -6.64594 -7.57881
upperback 2.02675 -9.19922 2.36576
thorax 0.731271 -4.71354 6.9689
lowerneck -22.1784 -4.45048 -12.8952
upperneck 27.3979 -2.69625 3.76305
head 13.1896 -2.01662 3.16013
rclavicle 9.44227e-016 1.82882e-014
rhumerus 33.2139 2.71863 -52.5561
rradius 56.7769
rwrist 48.8059
rhand -59.8831 -19.3606
rfingers 7.12502
rthumb -32.0405 -46.5584
lclavicle 9.44227e-016 1.82882e-014
lhumerus 52.3822 -20.4799 68.3064
lradius 35.2145
lwrist -37.8247
lhand -51.4397 65.285
lfingers 7.12502
lthumb -23.9703 626.191
rfemur -31.1257 3.60058 16.0692
rtibia 33.6911
rfoot -4.21139 -2.07684
rtoes 11.7614
lfemur -0.119208 7.51758 -22.194
ltibia 22.8534
lfoot -21.8867 18.8575
ltoes -12.5553
